<?xml version="1.0" standalone="no"?>
<!DOCTYPE svg PUBLIC "-//W3C//DTD SVG 20010904//EN"
 "http://www.w3.org/TR/2001/REC-SVG-20010904/DTD/svg10.dtd">
<svg version="1.0" xmlns="http://www.w3.org/2000/svg"
 width="178.000000pt" height="246.000000pt" viewBox="0 0 178.000000 246.000000"
 preserveAspectRatio="xMidYMid meet">

<g transform="translate(0.000000,246.000000) scale(0.100000,-0.100000)"
fill="#000000" stroke="none">
<path d="M730 2444 c-14 -3 -61 -17 -105 -31 -330 -106 -568 -385 -616 -720
-12 -85 -6 -280 11 -378 63 -347 259 -719 569 -1080 169 -197 207 -225 301
-225 69 0 107 18 171 81 177 176 379 449 501 679 138 259 203 480 215 730 7
147 -5 239 -47 358 -57 162 -148 290 -286 402 -87 69 -162 110 -284 153 -79
27 -97 30 -245 32 -88 2 -171 1 -185 -1z m350 -154 c261 -73 439 -245 531
-515 21 -62 24 -87 24 -225 -1 -125 -5 -173 -23 -250 -65 -274 -194 -538 -392
-805 -110 -148 -302 -355 -330 -355 -28 0 -220 207 -330 355 -198 267 -327
531 -392 805 -18 77 -22 125 -23 250 0 138 3 163 24 225 102 299 310 479 619
535 69 13 207 3 292 -20z"/>
<path d="M796 2169 c-80 -11 -206 -62 -268 -110 -47 -37 -140 -130 -135 -135
2 -2 20 1 42 7 21 6 81 9 134 7 86 -3 104 -7 165 -37 40 -20 87 -53 113 -80
l43 -46 45 47 c26 26 76 62 113 80 59 29 78 33 163 36 53 2 113 -1 134 -7 22
-6 40 -9 42 -7 5 5 -88 98 -135 135 -68 52 -185 98 -282 110 -46 6 -89 10 -95
10 -5 -1 -41 -5 -79 -10z"/>
<path d="M480 1807 c-126 -34 -200 -134 -200 -272 0 -79 35 -197 81 -276 44
-76 141 -180 193 -206 17 -8 38 -21 46 -28 8 -7 53 -26 100 -42 122 -40 258
-40 380 0 47 16 92 35 100 42 8 7 29 20 46 28 52 26 149 130 193 206 46 79 81
197 81 276 0 164 -109 277 -268 277 -115 0 -193 -46 -242 -145 l-30 -60 0
-193 c0 -106 -3 -199 -6 -208 -9 -23 -119 -23 -128 0 -3 9 -6 103 -6 210 0
210 -4 227 -65 309 -51 69 -180 107 -275 82z m141 -33 c40 -12 65 -28 96 -61
53 -56 66 -97 61 -183 -6 -107 -64 -177 -171 -206 -102 -27 -208 18 -264 113
-23 40 -28 59 -28 113 1 108 57 186 157 221 66 23 81 23 149 3z m677 1 c104
-31 166 -115 167 -225 0 -54 -5 -73 -28 -113 -56 -95 -162 -140 -264 -113
-107 29 -165 99 -171 206 -5 84 7 122 55 178 27 31 54 49 93 62 68 24 83 24
148 5z"/>
<path d="M504 1640 c-27 -11 -54 -53 -54 -85 0 -82 81 -129 151 -88 61 36 64
128 6 163 -34 21 -68 24 -103 10z"/>
<path d="M1173 1631 c-58 -36 -55 -128 6 -164 71 -42 151 7 151 90 0 73 -91
115 -157 74z"/>
<path d="M430 964 c0 -22 185 -324 199 -324 7 0 84 116 109 166 10 20 8 22
-21 28 -48 9 -154 55 -224 97 -35 21 -63 36 -63 33z"/>
<path d="M1285 930 c-117 -70 -240 -110 -340 -110 -31 0 -45 -5 -49 -17 -8
-20 -44 -78 -114 -185 -30 -45 -56 -87 -59 -94 -5 -14 151 -204 167 -204 11 0
191 211 238 278 96 139 229 360 220 366 -2 2 -30 -14 -63 -34z"/>
</g>
</svg>
