<svg id="visual" viewBox="0 0 900 600" width="900" height="600" xmlns="http://www.w3.org/2000/svg" xmlns:xlink="http://www.w3.org/1999/xlink" version="1.1"><rect x="0" y="0" width="900" height="600" fill="#001220"></rect><defs><linearGradient id="grad1_0" x1="33.3%" y1="0%" x2="100%" y2="100%"><stop offset="20%" stop-color="#fbae3c" stop-opacity="1"></stop><stop offset="80%" stop-color="#fbae3c" stop-opacity="1"></stop></linearGradient></defs><defs><linearGradient id="grad1_1" x1="33.3%" y1="0%" x2="100%" y2="100%"><stop offset="20%" stop-color="#fbae3c" stop-opacity="1"></stop><stop offset="80%" stop-color="#cc5867" stop-opacity="1"></stop></linearGradient></defs><defs><linearGradient id="grad1_2" x1="33.3%" y1="0%" x2="100%" y2="100%"><stop offset="20%" stop-color="#593762" stop-opacity="1"></stop><stop offset="80%" stop-color="#cc5867" stop-opacity="1"></stop></linearGradient></defs><defs><linearGradient id="grad1_3" x1="33.3%" y1="0%" x2="100%" y2="100%"><stop offset="20%" stop-color="#593762" stop-opacity="1"></stop><stop offset="80%" stop-color="#001220" stop-opacity="1"></stop></linearGradient></defs><defs><linearGradient id="grad2_0" x1="0%" y1="0%" x2="66.7%" y2="100%"><stop offset="20%" stop-color="#fbae3c" stop-opacity="1"></stop><stop offset="80%" stop-color="#fbae3c" stop-opacity="1"></stop></linearGradient></defs><defs><linearGradient id="grad2_1" x1="0%" y1="0%" x2="66.7%" y2="100%"><stop offset="20%" stop-color="#cc5867" stop-opacity="1"></stop><stop offset="80%" stop-color="#fbae3c" stop-opacity="1"></stop></linearGradient></defs><defs><linearGradient id="grad2_2" x1="0%" y1="0%" x2="66.7%" y2="100%"><stop offset="20%" stop-color="#cc5867" stop-opacity="1"></stop><stop offset="80%" stop-color="#593762" stop-opacity="1"></stop></linearGradient></defs><defs><linearGradient id="grad2_3" x1="0%" y1="0%" x2="66.7%" y2="100%"><stop offset="20%" stop-color="#001220" stop-opacity="1"></stop><stop offset="80%" stop-color="#593762" stop-opacity="1"></stop></linearGradient></defs><g transform="translate(900, 0)"><path d="M0 351.5C-62.1 342.7 -124.1 333.8 -175.8 304.4C-227.4 275.1 -268.6 225.2 -296.2 171C-323.7 116.8 -337.6 58.4 -351.5 0L0 0Z" fill="#232745"></path><path d="M0 263.7C-46.5 257 -93.1 250.4 -131.8 228.3C-170.6 206.3 -201.5 168.9 -222.1 128.3C-242.8 87.6 -253.2 43.8 -263.7 0L0 0Z" fill="#96446e"></path><path d="M0 175.8C-31 171.3 -62.1 166.9 -87.9 152.2C-113.7 137.5 -134.3 112.6 -148.1 85.5C-161.9 58.4 -168.8 29.2 -175.8 0L0 0Z" fill="#f17c53"></path><path d="M0 87.9C-15.5 85.7 -31 83.5 -43.9 76.1C-56.9 68.8 -67.2 56.3 -74 42.8C-80.9 29.2 -84.4 14.6 -87.9 0L0 0Z" fill="#fbae3c"></path></g><g transform="translate(0, 600)"><path d="M0 -351.5C27.2 -283.6 54.4 -215.7 112.5 -194.9C170.6 -174.1 259.5 -200.4 304.4 -175.8C349.4 -151.2 350.5 -75.6 351.5 0L0 0Z" fill="#232745"></path><path d="M0 -263.7C20.4 -212.7 40.8 -161.7 84.4 -146.1C127.9 -130.5 194.6 -150.3 228.3 -131.8C262.1 -113.4 262.9 -56.7 263.7 0L0 0Z" fill="#96446e"></path><path d="M0 -175.8C13.6 -141.8 27.2 -107.8 56.2 -97.4C85.3 -87 129.7 -100.2 152.2 -87.9C174.7 -75.6 175.2 -37.8 175.8 0L0 0Z" fill="#f17c53"></path><path d="M0 -87.9C6.8 -70.9 13.6 -53.9 28.1 -48.7C42.6 -43.5 64.9 -50.1 76.1 -43.9C87.4 -37.8 87.6 -18.9 87.9 0L0 0Z" fill="#fbae3c"></path></g></svg>