<svg id="visual" viewBox="0 0 900 600" width="900" height="600" xmlns="http://www.w3.org/2000/svg" xmlns:xlink="http://www.w3.org/1999/xlink" version="1.1"><g stroke-width="1" stroke-linejoin="bevel"><path d="M460 258.1L529 305.9L523 238.1Z" fill="#19435d" stroke="#19435d"></path><path d="M523 238.1L455 177.4L460 258.1Z" fill="#112e42" stroke="#112e42"></path><path d="M529 305.9L604 249.1L523 238.1Z" fill="#205a7a" stroke="#205a7a"></path><path d="M523 238.1L537 144.4L455 177.4Z" fill="#1d4e6b" stroke="#1d4e6b"></path><path d="M362 278.1L438 369.9L460 258.1Z" fill="#277297" stroke="#277297"></path><path d="M460 258.1L438 369.9L529 305.9Z" fill="#15384f" stroke="#15384f"></path><path d="M630 191.4L537 144.4L523 238.1Z" fill="#19435d" stroke="#19435d"></path><path d="M455 177.4L362 278.1L460 258.1Z" fill="#0c2435" stroke="#0c2435"></path><path d="M544 418.6L636 303.9L529 305.9Z" fill="#246688" stroke="#246688"></path><path d="M529 305.9L636 303.9L604 249.1Z" fill="#297ea6" stroke="#297ea6"></path><path d="M362 278.1L399 379.9L438 369.9Z" fill="#00101c" stroke="#00101c"></path><path d="M486 485.3L544 418.6L438 369.9Z" fill="#297ea6" stroke="#297ea6"></path><path d="M438 369.9L544 418.6L529 305.9Z" fill="#246688" stroke="#246688"></path><path d="M636 303.9L630 191.4L604 249.1Z" fill="#205a7a" stroke="#205a7a"></path><path d="M604 249.1L630 191.4L523 238.1Z" fill="#277297" stroke="#277297"></path><path d="M399 379.9L412 409.6L438 369.9Z" fill="#246688" stroke="#246688"></path><path d="M416 72.7L363 153.4L455 177.4Z" fill="#112e42" stroke="#112e42"></path><path d="M455 177.4L363 153.4L362 278.1Z" fill="#297ea6" stroke="#297ea6"></path><path d="M363 153.4L309 223.1L362 278.1Z" fill="#081a28" stroke="#081a28"></path><path d="M362 278.1L308 377.9L399 379.9Z" fill="#277297" stroke="#277297"></path><path d="M399 379.9L326 411.6L412 409.6Z" fill="#19435d" stroke="#19435d"></path><path d="M544 418.6L647 418.6L636 303.9Z" fill="#19435d" stroke="#19435d"></path><path d="M751 271.1L699 161.4L630 191.4Z" fill="#112e42" stroke="#112e42"></path><path d="M412 409.6L486 485.3L438 369.9Z" fill="#1d4e6b" stroke="#1d4e6b"></path><path d="M544 418.6L534 509.3L647 418.6Z" fill="#277297" stroke="#277297"></path><path d="M210 281.1L308 377.9L362 278.1Z" fill="#15384f" stroke="#15384f"></path><path d="M412 409.6L364 536.3L486 485.3Z" fill="#00101c" stroke="#00101c"></path><path d="M537 144.4L416 72.7L455 177.4Z" fill="#081a28" stroke="#081a28"></path><path d="M363 153.4L270 162.4L309 223.1Z" fill="#1d4e6b" stroke="#1d4e6b"></path><path d="M518 48.7L416 72.7L537 144.4Z" fill="#0c2435" stroke="#0c2435"></path><path d="M416 72.7L342 120.7L363 153.4Z" fill="#1d4e6b" stroke="#1d4e6b"></path><path d="M308 377.9L326 411.6L399 379.9Z" fill="#297ea6" stroke="#297ea6"></path><path d="M640 69.7L518 48.7L537 144.4Z" fill="#1d4e6b" stroke="#1d4e6b"></path><path d="M751 271.1L630 191.4L636 303.9Z" fill="#081a28" stroke="#081a28"></path><path d="M630 191.4L640 69.7L537 144.4Z" fill="#081a28" stroke="#081a28"></path><path d="M440 600L534 509.3L486 485.3Z" fill="#297ea6" stroke="#297ea6"></path><path d="M486 485.3L534 509.3L544 418.6Z" fill="#15384f" stroke="#15384f"></path><path d="M699 161.4L640 69.7L630 191.4Z" fill="#297ea6" stroke="#297ea6"></path><path d="M741 345.9L751 271.1L636 303.9Z" fill="#297ea6" stroke="#297ea6"></path><path d="M785 346.9L741 345.9L749 439.6Z" fill="#1d4e6b" stroke="#1d4e6b"></path><path d="M647 418.6L741 345.9L636 303.9Z" fill="#112e42" stroke="#112e42"></path><path d="M342 120.7L270 162.4L363 153.4Z" fill="#277297" stroke="#277297"></path><path d="M309 223.1L210 281.1L362 278.1Z" fill="#0c2435" stroke="#0c2435"></path><path d="M274 108.7L270 162.4L342 120.7Z" fill="#19435d" stroke="#19435d"></path><path d="M579 0L468 0L518 48.7Z" fill="#205a7a" stroke="#205a7a"></path><path d="M518 48.7L468 0L416 72.7Z" fill="#277297" stroke="#277297"></path><path d="M355 0L274 108.7L342 120.7Z" fill="#0c2435" stroke="#0c2435"></path><path d="M785 346.9L775 244.1L751 271.1Z" fill="#297ea6" stroke="#297ea6"></path><path d="M751 271.1L775 244.1L699 161.4Z" fill="#246688" stroke="#246688"></path><path d="M699 161.4L737 90.7L640 69.7Z" fill="#246688" stroke="#246688"></path><path d="M355 0L342 120.7L416 72.7Z" fill="#205a7a" stroke="#205a7a"></path><path d="M640 69.7L579 0L518 48.7Z" fill="#15384f" stroke="#15384f"></path><path d="M270 162.4L210 281.1L309 223.1Z" fill="#277297" stroke="#277297"></path><path d="M308 377.9L246 437.6L326 411.6Z" fill="#081a28" stroke="#081a28"></path><path d="M153 157.4L210 281.1L270 162.4Z" fill="#112e42" stroke="#112e42"></path><path d="M722 0L597 0L640 69.7Z" fill="#0c2435" stroke="#0c2435"></path><path d="M640 69.7L597 0L579 0Z" fill="#277297" stroke="#277297"></path><path d="M749 439.6L741 345.9L647 418.6Z" fill="#246688" stroke="#246688"></path><path d="M741 345.9L785 346.9L751 271.1Z" fill="#205a7a" stroke="#205a7a"></path><path d="M246 522.3L364 536.3L326 411.6Z" fill="#15384f" stroke="#15384f"></path><path d="M326 411.6L364 536.3L412 409.6Z" fill="#19435d" stroke="#19435d"></path><path d="M653 533.3L749 439.6L647 418.6Z" fill="#246688" stroke="#246688"></path><path d="M820 184.4L737 90.7L699 161.4Z" fill="#19435d" stroke="#19435d"></path><path d="M569 600L653 533.3L534 509.3Z" fill="#15384f" stroke="#15384f"></path><path d="M534 509.3L653 533.3L647 418.6Z" fill="#1d4e6b" stroke="#1d4e6b"></path><path d="M199 420.6L246 437.6L308 377.9Z" fill="#15384f" stroke="#15384f"></path><path d="M468 0L355 0L416 72.7Z" fill="#246688" stroke="#246688"></path><path d="M396 600L440 600L364 536.3Z" fill="#277297" stroke="#277297"></path><path d="M364 536.3L440 600L486 485.3Z" fill="#0c2435" stroke="#0c2435"></path><path d="M900 210.4L820 184.4L775 244.1Z" fill="#15384f" stroke="#15384f"></path><path d="M775 244.1L820 184.4L699 161.4Z" fill="#081a28" stroke="#081a28"></path><path d="M617 600L687 549.3L653 533.3Z" fill="#15384f" stroke="#15384f"></path><path d="M653 533.3L687 549.3L749 439.6Z" fill="#00101c" stroke="#00101c"></path><path d="M440 600L569 600L534 509.3Z" fill="#246688" stroke="#246688"></path><path d="M210 281.1L199 420.6L308 377.9Z" fill="#15384f" stroke="#15384f"></path><path d="M268 600L396 600L364 536.3Z" fill="#205a7a" stroke="#205a7a"></path><path d="M246 522.3L326 411.6L246 437.6Z" fill="#081a28" stroke="#081a28"></path><path d="M569 600L617 600L653 533.3Z" fill="#00101c" stroke="#00101c"></path><path d="M820 184.4L784 68.7L737 90.7Z" fill="#081a28" stroke="#081a28"></path><path d="M737 90.7L722 0L640 69.7Z" fill="#246688" stroke="#246688"></path><path d="M258 0L214 69.7L274 108.7Z" fill="#277297" stroke="#277297"></path><path d="M274 108.7L214 69.7L270 162.4Z" fill="#277297" stroke="#277297"></path><path d="M210 281.1L159 367.9L199 420.6Z" fill="#112e42" stroke="#112e42"></path><path d="M784 68.7L722 0L737 90.7Z" fill="#112e42" stroke="#112e42"></path><path d="M102 290.1L159 367.9L210 281.1Z" fill="#246688" stroke="#246688"></path><path d="M199 420.6L246 522.3L246 437.6Z" fill="#277297" stroke="#277297"></path><path d="M164 550.3L246 522.3L199 420.6Z" fill="#112e42" stroke="#112e42"></path><path d="M777 600L787 491.3L687 549.3Z" fill="#1d4e6b" stroke="#1d4e6b"></path><path d="M687 549.3L787 491.3L749 439.6Z" fill="#112e42" stroke="#112e42"></path><path d="M749 439.6L819 449.6L785 346.9Z" fill="#246688" stroke="#246688"></path><path d="M785 346.9L900 289.1L775 244.1Z" fill="#112e42" stroke="#112e42"></path><path d="M787 491.3L819 449.6L749 439.6Z" fill="#0c2435" stroke="#0c2435"></path><path d="M355 0L258 0L274 108.7Z" fill="#19435d" stroke="#19435d"></path><path d="M80 61.7L153 157.4L214 69.7Z" fill="#205a7a" stroke="#205a7a"></path><path d="M214 69.7L153 157.4L270 162.4Z" fill="#00101c" stroke="#00101c"></path><path d="M617 600L690 600L687 549.3Z" fill="#081a28" stroke="#081a28"></path><path d="M153 157.4L102 290.1L210 281.1Z" fill="#277297" stroke="#277297"></path><path d="M179 600L268 600L246 522.3Z" fill="#297ea6" stroke="#297ea6"></path><path d="M98 437.6L199 420.6L159 367.9Z" fill="#19435d" stroke="#19435d"></path><path d="M246 522.3L268 600L364 536.3Z" fill="#297ea6" stroke="#297ea6"></path><path d="M900 341.9L900 289.1L785 346.9Z" fill="#112e42" stroke="#112e42"></path><path d="M820 184.4L900 85.7L784 68.7Z" fill="#19435d" stroke="#19435d"></path><path d="M102 290.1L111 374.9L159 367.9Z" fill="#246688" stroke="#246688"></path><path d="M900 289.1L900 210.4L775 244.1Z" fill="#1d4e6b" stroke="#1d4e6b"></path><path d="M900 405.6L900 341.9L785 346.9Z" fill="#0c2435" stroke="#0c2435"></path><path d="M900 85.7L811 0L784 68.7Z" fill="#1d4e6b" stroke="#1d4e6b"></path><path d="M784 68.7L811 0L722 0Z" fill="#1d4e6b" stroke="#1d4e6b"></path><path d="M258 0L183 0L214 69.7Z" fill="#19435d" stroke="#19435d"></path><path d="M153 157.4L59 193.4L102 290.1Z" fill="#112e42" stroke="#112e42"></path><path d="M900 500.3L900 405.6L819 449.6Z" fill="#205a7a" stroke="#205a7a"></path><path d="M819 449.6L900 405.6L785 346.9Z" fill="#1d4e6b" stroke="#1d4e6b"></path><path d="M900 500.3L819 449.6L787 491.3Z" fill="#1d4e6b" stroke="#1d4e6b"></path><path d="M690 600L777 600L687 549.3Z" fill="#112e42" stroke="#112e42"></path><path d="M0 428.6L98 437.6L111 374.9Z" fill="#277297" stroke="#277297"></path><path d="M111 374.9L98 437.6L159 367.9Z" fill="#00101c" stroke="#00101c"></path><path d="M98 437.6L164 550.3L199 420.6Z" fill="#0c2435" stroke="#0c2435"></path><path d="M900 210.4L900 85.7L820 184.4Z" fill="#081a28" stroke="#081a28"></path><path d="M80 61.7L59 193.4L153 157.4Z" fill="#246688" stroke="#246688"></path><path d="M102 290.1L0 328.9L111 374.9Z" fill="#246688" stroke="#246688"></path><path d="M120 600L179 600L164 550.3Z" fill="#081a28" stroke="#081a28"></path><path d="M164 550.3L179 600L246 522.3Z" fill="#00101c" stroke="#00101c"></path><path d="M900 600L900 500.3L787 491.3Z" fill="#297ea6" stroke="#297ea6"></path><path d="M183 0L80 61.7L214 69.7Z" fill="#112e42" stroke="#112e42"></path><path d="M183 0L102 0L80 61.7Z" fill="#0c2435" stroke="#0c2435"></path><path d="M900 85.7L900 0L811 0Z" fill="#00101c" stroke="#00101c"></path><path d="M59 193.4L0 288.1L102 290.1Z" fill="#15384f" stroke="#15384f"></path><path d="M50 531.3L120 600L164 550.3Z" fill="#205a7a" stroke="#205a7a"></path><path d="M0 198.4L0 288.1L59 193.4Z" fill="#297ea6" stroke="#297ea6"></path><path d="M50 531.3L164 550.3L98 437.6Z" fill="#15384f" stroke="#15384f"></path><path d="M0 288.1L0 328.9L102 290.1Z" fill="#205a7a" stroke="#205a7a"></path><path d="M0 103.7L59 193.4L80 61.7Z" fill="#0c2435" stroke="#0c2435"></path><path d="M0 103.7L0 198.4L59 193.4Z" fill="#1d4e6b" stroke="#1d4e6b"></path><path d="M777 600L900 600L787 491.3Z" fill="#19435d" stroke="#19435d"></path><path d="M0 428.6L50 531.3L98 437.6Z" fill="#00101c" stroke="#00101c"></path><path d="M0 328.9L0 428.6L111 374.9Z" fill="#00101c" stroke="#00101c"></path><path d="M0 0L0 103.7L80 61.7Z" fill="#00101c" stroke="#00101c"></path><path d="M0 428.6L0 536.3L50 531.3Z" fill="#0c2435" stroke="#0c2435"></path><path d="M50 531.3L0 600L120 600Z" fill="#0c2435" stroke="#0c2435"></path><path d="M102 0L0 0L80 61.7Z" fill="#15384f" stroke="#15384f"></path><path d="M0 536.3L0 600L50 531.3Z" fill="#277297" stroke="#277297"></path></g></svg>